<?xml version="1.0" encoding="utf-8"?><svg xmlns="http://www.w3.org/2000/svg" xmlns:xlink="http://www.w3.org/1999/xlink"><symbol viewBox="0 0 17.9 17.6" id="corrected" xmlns="http://www.w3.org/2000/svg"><path d="M10.1 10.5l2.1.5.4-1.6.8-.2 1 1.5 1.8-1.2-1-1.5.5-.7 1.7.4.5-2.1-1.7-.4-.2-.8 1.5-1-1.2-1.8-1.5 1-.7-.5.4-1.6-2.1-.5-.4 1.6-.9.1-.9-1.5-1.8 1.3.9 1.5-.4.6-1.6-.3-.5 2.1 1.6.3.2.9-1.5.9 1.2 1.8 1.5-.9.7.5-.4 1.6zm.2-5.5c.2-1.1 1.3-1.8 2.4-1.5 1.1.2 1.8 1.3 1.5 2.4-.2 1.1-1.3 1.8-2.4 1.5-1.1-.2-1.7-1.3-1.5-2.4z"/><path d="M3.3 17.2l2.1.4.3-1.6.8-.2 1 1.5 1.8-1.2-1-1.5.5-.6 1.7.4.5-2.1-1.7-.4-.1-.8 1.5-1-1.2-1.8-1.5 1-.7-.5.4-1.6-2.1-.5-.4 1.6-.8.2-1-1.5-1.8 1.2.9 1.5-.5.6L.5 10 0 12.1l1.6.3.2.9-1.5.9L1.5 16l1.5-.9.7.5-.4 1.6zm.2-5.5c.2-1.1 1.3-1.8 2.4-1.5 1.1.2 1.8 1.3 1.5 2.4-.2 1.1-1.3 1.8-2.4 1.5-1.1-.2-1.8-1.3-1.5-2.4z"/></symbol></svg>